<svg width="32" height="32" viewBox="0 0 32 32" fill="none" xmlns="http://www.w3.org/2000/svg">
<path fill-rule="evenodd" clip-rule="evenodd" d="M11.246 8.00552C13.8675 5.50918 18.1324 5.50918 20.7539 8.00552C20.9724 8.21394 21.2593 8.31815 21.5461 8.31815C21.8326 8.31815 22.1195 8.21394 22.3383 8.00552C22.776 7.58895 22.776 6.91311 22.3383 6.49627C18.8432 3.16791 13.1564 3.16791 9.6613 6.49627C9.2239 6.91311 9.2239 7.58868 9.6613 8.00552C10.099 8.42209 10.8086 8.42209 11.246 8.00552Z" fill="#FF0025"/>
<path fill-rule="evenodd" clip-rule="evenodd" d="M18.3769 11.3369C18.6635 11.3369 18.9503 11.2327 19.1691 11.0243C19.6065 10.6077 19.6065 9.93189 19.1691 9.51533C18.3226 8.70887 17.1972 8.26507 16 8.26507C14.8027 8.26507 13.6773 8.70887 12.8308 9.51533C12.3931 9.93189 12.3931 10.6075 12.8308 11.0243C13.2682 11.4411 13.9778 11.4409 14.4152 11.0243C14.8386 10.6211 15.4012 10.3993 16 10.3993C16.5984 10.3993 17.1613 10.6211 17.5844 11.0243C17.8032 11.2327 18.0901 11.3369 18.3769 11.3369Z" fill="#FF0025"/>
<path fill-rule="evenodd" clip-rule="evenodd" d="M17.1204 13.5995C17.1204 14.1887 16.6188 14.6667 16 14.6667C15.3811 14.6667 14.8795 14.1887 14.8795 13.5995C14.8795 13.0101 15.3811 12.5324 16 12.5324C16.6188 12.5324 17.1204 13.0101 17.1204 13.5995Z" fill="#FF0025"/>
<path d="M10.6667 22.6667C10.6667 21.9303 11.2637 21.3333 12.0001 21.3333C12.7365 21.3333 13.3334 21.9303 13.3334 22.6667C13.3334 23.403 12.7365 24 12.0001 24C11.2637 24 10.6667 23.403 10.6667 22.6667Z" fill="#FF0025"/>
<path d="M14.6667 22.6667C14.6667 21.9303 15.2637 21.3333 16.0001 21.3333C16.7365 21.3333 17.3334 21.9303 17.3334 22.6667C17.3334 23.403 16.7365 24 16.0001 24C15.2637 24 14.6667 23.403 14.6667 22.6667Z" fill="#FF0025"/>
<path d="M18.6667 22.6667C18.6667 21.9303 19.2637 21.3333 20.0001 21.3333C20.7365 21.3333 21.3334 21.9303 21.3334 22.6667C21.3334 23.403 20.7365 24 20.0001 24C19.2637 24 18.6667 23.403 18.6667 22.6667Z" fill="#FF0025"/>
<path fill-rule="evenodd" clip-rule="evenodd" d="M8.00009 13.3333C7.26371 13.3333 6.66676 13.9303 6.66676 14.6667V18.6667C6.66676 18.7628 6.67694 18.8566 6.69628 18.947C5.71468 19.9652 5.12605 20.6285 4.66691 22C5.33358 22.6667 6.45872 22.6667 7.32682 22.6667C8.43998 20.3028 10.8438 18.6667 13.6297 18.6667H18.3705C22.1167 18.6667 25.172 21.6252 25.3272 25.3333L7.33329 25.3333H7.29623L6.67295 25.3333L6.67301 25.332C5.87518 25.3271 4.66691 25.3333 4.00024 24.6667C3.99399 24.8091 4.00009 25.4857 4.00009 25.6296C4.00009 26.9387 5.06134 28 6.37046 28H25.6297C26.9388 28 28.0001 26.9387 28.0001 25.6296C28.0001 23.0343 26.9734 20.6787 25.3039 18.947C25.3232 18.8566 25.3334 18.7628 25.3334 18.6667V14.6667C25.3334 13.9303 24.7365 13.3333 24.0001 13.3333C23.2637 13.3333 22.6668 13.9303 22.6668 14.6667V17.0092C21.3734 16.3633 19.9144 16 18.3705 16H13.6297C12.0858 16 10.6268 16.3633 9.33343 17.0092V14.6667C9.33343 13.9303 8.73647 13.3333 8.00009 13.3333Z" fill="#FF0025"/>
</svg>
