<svg width="36" height="36" viewBox="0 0 36 36" fill="none" xmlns="http://www.w3.org/2000/svg">
<path fillRule="evenodd" clipRule="evenodd" d="M0.0541687 1.36384C0.295273 0.399426 1.27254 -0.186936 2.23696 0.0541687L6.71004 1.17244C8.85773 1.70936 10.4327 3.49064 10.744 5.63129L32.9084 8.79763C34.6819 9.05099 35.9993 10.5699 35.9993 12.3614V18.0002C35.9993 19.9884 34.3875 21.6002 32.3993 21.6002H12.1753C13.1641 22.7049 14.601 23.4001 16.2002 23.4001H34.2C35.1941 23.4001 36 24.206 36 25.2001C36 26.1942 35.1941 27.0001 34.2 27.0001H32.8246C33.6797 27.9554 34.1996 29.217 34.1996 30.6001C34.1996 33.5824 31.782 36 28.7997 36C25.8174 36 23.3997 33.5824 23.3997 30.6001C23.3997 29.217 23.9197 27.9554 24.7747 27.0001H16.6248C17.4799 27.9554 17.9998 29.217 17.9998 30.6001C17.9998 33.5824 15.5822 36 12.5999 36C9.61755 36 7.19991 33.5824 7.19991 30.6001C7.19991 28.1402 8.84475 26.0644 11.0946 25.4127C8.74206 23.7892 7.20034 21.0748 7.20034 18.0002V16.9153C8.29893 17.5949 9.5705 17.997 10.7854 18.0002H32.3993V12.3614L10.8003 9.27583V15.3003C9.95514 15.3003 8.90393 14.92 8.06561 14.2194C7.71123 13.9232 7.41878 13.5911 7.20034 13.234V6.41114C7.20034 5.58519 6.63821 4.86523 5.83692 4.66491L1.36385 3.54664C0.399426 3.30553 -0.186936 2.32826 0.0541687 1.36384ZM30.5996 30.6001C30.5996 31.5942 29.7938 32.4 28.7997 32.4C27.8056 32.4 26.9997 31.5942 26.9997 30.6001C26.9997 29.606 27.8056 28.8001 28.7997 28.8001C29.7938 28.8001 30.5996 29.606 30.5996 30.6001ZM12.5999 32.4C13.594 32.4 14.3998 31.5942 14.3998 30.6001C14.3998 29.606 13.594 28.8001 12.5999 28.8001C11.6058 28.8001 10.7999 29.606 10.7999 30.6001C10.7999 31.5942 11.6058 32.4 12.5999 32.4Z" fill="#FF0025"/>
</svg>
