<svg width="48" height="48" viewBox="0 0 48 48" fill="none" xmlns="http://www.w3.org/2000/svg">
<path d="M20 14C20 12.8954 20.8954 12 22 12H34C35.1046 12 36 12.8954 36 14C36 15.1046 35.1046 16 34 16H22C20.8954 16 20 15.1046 20 14Z" fill="#FF0025"/>
<path d="M20 20C20 18.8954 20.8954 18 22 18H34C35.1046 18 36 18.8954 36 20C36 21.1046 35.1046 22 34 22H22C20.8954 22 20 21.1046 20 20Z" fill="#FF0025"/>
<path d="M20 26C20 24.8954 20.8954 24 22 24H30C31.1046 24 32 24.8954 32 26C32 27.1046 31.1046 28 30 28H22C20.8954 28 20 27.1046 20 26Z" fill="#FF0025"/>
<path fillRule="evenodd" clipRule="evenodd" d="M6 12C6 8.68629 8.68629 6 12 6H14H18H38C40.2091 6 42 7.79086 42 10V41.0343C42 41.3907 41.5691 41.5691 41.3172 41.3172L39 39L35.1978 41.8517C35.0766 41.9426 34.9144 41.9572 34.7789 41.8894L29 39L24.1883 41.887C24.071 41.9574 23.9259 41.963 23.8036 41.9018L18 39L14.64 41.52C14.3763 41.7178 14 41.5296 14 41.2V37.9075L18 34.4075V34.5279L23.8249 37.4403L28.8249 34.4403L34.5777 37.3167L38 34.75V10H18V20V30.9075L14 34.4075V20H6V12ZM12 10H14V16H10V12C10 10.8954 10.8954 10 12 10Z" fill="#FF0025"/>
</svg>
