<svg width="48" height="48" viewBox="0 0 48 48" fill="none" xmlns="http://www.w3.org/2000/svg">
<path d="M17.716 6.65901C18.5947 7.53769 18.5947 8.96231 17.716 9.84099L13.682 13.875H39.75C40.9926 13.875 42 14.8824 42 16.125C42 17.3676 40.9926 18.375 39.75 18.375H13.682L17.716 22.409C18.5947 23.2877 18.5947 24.7123 17.716 25.591C16.8373 26.4697 15.4127 26.4697 14.534 25.591L6.65901 17.716C6.23705 17.294 6 16.7217 6 16.125C6 15.5283 6.23705 14.956 6.65901 14.534L14.534 6.65901C15.4127 5.78033 16.8373 5.78033 17.716 6.65901Z" fill="#FF0025"/>
<path d="M30.284 41.341C29.4053 40.4623 29.4053 39.0377 30.284 38.159L34.318 34.125L8.25 34.125C7.00736 34.125 6 33.1176 6 31.875C6 30.6324 7.00736 29.625 8.25 29.625L34.318 29.625L30.284 25.591C29.4053 24.7123 29.4053 23.2877 30.284 22.409C31.1627 21.5303 32.5873 21.5303 33.466 22.409L41.341 30.284C41.7629 30.706 42 31.2783 42 31.875C42 32.4717 41.7629 33.044 41.341 33.466L33.466 41.341C32.5873 42.2197 31.1627 42.2197 30.284 41.341Z" fill="#FF0025"/>
</svg>
