<svg width="32" height="32" viewBox="0 0 32 32" fill="none" xmlns="http://www.w3.org/2000/svg">
<g clip-path="url(#clip0_1334_48875)">
<path d="M7.67267 6.37499C6.99655 6.37499 6.44845 6.90666 6.44845 7.56249V24.0514C6.13298 23.9844 5.80614 23.8898 5.49561 23.7607C4.75534 23.4529 4.19836 22.992 4 22.3293V7.56249C4 5.59498 5.64431 4 7.67267 4H14.0038C14.9779 4 15.912 4.37533 16.6008 5.04343L22.5119 10.7772C23.2006 11.4453 23.5876 12.3514 23.5876 13.2962V18.0192C23.2544 17.9541 22.9096 17.92 22.5567 17.92C22.0652 17.92 21.5897 17.9862 21.1391 18.1099V13.2962C21.1391 12.9813 21.0101 12.6792 20.7806 12.4565L20.632 12.3125H16.2422C15.5661 12.3125 15.018 11.7808 15.018 11.125V6.86687L14.8695 6.72281C14.6399 6.50011 14.3285 6.37499 14.0038 6.37499H7.67267Z" fill="#FF0025"/>
<path d="M17.995 25.375H7.67233C6.99718 25.375 5.96286 25.2469 5.01336 24.8522C4.66688 24.7081 4.3188 24.5226 4.00139 24.2866C4.0555 26.2082 5.67847 27.75 7.67267 27.75H19.9149C20.1842 27.75 20.4467 27.7218 20.6995 27.6685C19.5421 27.2387 18.5836 26.4189 17.995 25.375Z" fill="#FF0025"/>
<path d="M8.89689 18.25C8.89689 17.5941 9.445 17.0625 10.1211 17.0625H17.4665C18.1426 17.0625 18.6907 17.5941 18.6907 18.25C18.6907 18.9058 18.1426 19.4375 17.4665 19.4375H10.1211C9.445 19.4375 8.89689 18.9058 8.89689 18.25Z" fill="#FF0025"/>
<path d="M10.1211 20.625C9.445 20.625 8.89689 21.1566 8.89689 21.8125C8.89689 22.4683 9.445 23 10.1211 23H13.7938C14.4699 23 15.018 22.4683 15.018 21.8125C15.018 21.1566 14.4699 20.625 13.7938 20.625H10.1211Z" fill="#FF0025"/>
<path d="M8.89689 14.6875C8.89689 14.0316 9.445 13.5 10.1211 13.5H17.4665C18.1426 13.5 18.6907 14.0316 18.6907 14.6875C18.6907 15.3433 18.1426 15.875 17.4665 15.875H10.1211C9.445 15.875 8.89689 15.3433 8.89689 14.6875Z" fill="#FF0025"/>
<path fill-rule="evenodd" clip-rule="evenodd" d="M22.5872 19.4874C20.7298 19.4874 19.2241 20.9479 19.2241 22.7496C19.2241 24.3079 20.3505 25.6109 21.8566 25.9346C21.3453 26.1923 20.8172 26.3966 20.3189 26.5025C18.9931 25.7468 18.1031 24.349 18.1031 22.7496C18.1031 20.3474 20.1107 18.4 22.5872 18.4C25.0637 18.4 27.0713 20.3474 27.0713 22.7496C27.0713 23.7547 26.7198 24.6802 26.1296 25.4168L27.8358 27.0718C28.0547 27.2842 28.0547 27.6284 27.8358 27.8408C27.6169 28.0531 27.262 28.0531 27.0431 27.8408L25.3369 26.1857C24.5776 26.7582 23.6234 27.0992 22.5872 27.0992C22.3976 27.0992 22.2107 27.0878 22.0273 27.0656C22.2182 26.9787 22.4021 26.8871 22.5765 26.7942C23.5178 26.2932 24.3227 25.6791 24.6533 25.3238C25.4426 24.7268 25.9503 23.7957 25.9503 22.7496C25.9503 20.9479 24.4446 19.4874 22.5872 19.4874Z" fill="#FF0025"/>
</g>
<defs>
<clipPath id="clip0_1334_48875">
<rect width="32" height="32" fill="white"/>
</clipPath>
</defs>
</svg>
