<svg width="32" height="32" viewBox="0 0 32 32" fill="none" xmlns="http://www.w3.org/2000/svg">
<path d="M8.12487 8.12535C10.1802 6.07006 12.9677 4.91541 15.8744 4.91541C18.781 4.91541 21.5686 6.07006 23.6238 8.12535C25.6791 10.1806 26.8338 12.9682 26.8338 15.8748C26.8338 17.3141 26.5503 18.7392 25.9995 20.0688C25.4488 21.3985 24.6415 22.6066 23.6238 23.6243C22.6062 24.642 21.398 25.4493 20.0683 26C18.7387 26.5508 17.3136 26.8343 15.8744 26.8343C14.4351 26.8343 13.01 26.5508 11.6804 26C10.3507 25.4493 9.14254 24.642 8.12487 23.6243C7.30078 22.8002 6.61467 21.8513 6.09101 20.814C4.98379 20.2922 3.97086 19.6891 3.05542 19.0584C3.21354 19.6951 3.41924 20.3206 3.67144 20.9295C4.33522 22.532 5.30814 23.988 6.53465 25.2145C7.76116 26.4411 9.21723 27.414 10.8197 28.0778C12.4223 28.7415 14.1398 29.0832 15.8744 29.0832C17.6089 29.0832 19.3265 28.7415 20.929 28.0778C22.5315 27.414 23.9876 26.4411 25.2141 25.2145C26.4406 23.988 27.4135 22.532 28.0773 20.9295C28.7411 19.3269 29.0827 17.6094 29.0827 15.8748C29.0827 12.3718 27.6911 9.01218 25.2141 6.53514C22.737 4.05809 19.3774 2.6665 15.8744 2.6665C12.3713 2.6665 9.01169 4.05809 6.53465 6.53514C4.0576 9.01218 2.66602 12.3718 2.66602 15.8748C2.66602 16.1608 2.6753 16.4462 2.69378 16.7308C3.45373 17.3365 4.30023 17.9379 5.23086 18.4873C5.02148 17.6343 4.91492 16.7572 4.91492 15.8748C4.91492 12.9682 6.06957 10.1806 8.12487 8.12535Z" fill="#FF0025"/>
<path d="M13.7386 20.884C13.3459 20.8867 12.96 20.8746 12.5809 20.8488C12.2703 20.6487 12.0646 20.2998 12.0646 19.9028V11.8469C12.0646 11.2259 12.568 10.7224 13.189 10.7224C13.8101 10.7224 14.3135 11.2259 14.3135 11.8469V19.9028C14.3135 20.3242 14.0817 20.6915 13.7386 20.884Z" fill="#FF0025"/>
<path d="M19.6841 11.8469C19.6841 11.2259 19.1807 10.7224 18.5597 10.7224C17.9386 10.7224 17.4352 11.2259 17.4352 11.8469V19.9028C17.4352 20.5238 17.9386 21.0273 18.5597 21.0273C19.1807 21.0273 19.6841 20.5238 19.6841 19.9028V11.8469Z" fill="#FF0025"/>
</svg>
