<svg width="48" height="48" viewBox="0 0 48 48" fill="none" xmlns="http://www.w3.org/2000/svg">
<path fillRule="evenodd" clipRule="evenodd" d="M12 40H36L36 17.4482L26.1265 8H12V38C10.936 38 9.81753 37.7564 8.92875 37.1489C8.60675 36.9288 8.28805 36.6432 8 36.2647L8 8C8 5.79086 9.79086 4 12 4H26.1265C27.3136 4 28.4394 4.52729 29.1994 5.43926L39.0729 14.8875C39.6719 15.6063 40 16.5125 40 17.4482V40C40 42.2091 38.2091 44 36 44H12C9.79086 44 8 42.2091 8 40V39.1897C9.3729 39.7981 10.7938 40 12 40ZM20 34V28H28V34H20ZM16 26C16 24.8954 16.8954 24 18 24H30C31.1046 24 32 24.8954 32 26V36C32 37.1046 31.1046 38 30 38H18C16.8954 38 16 37.1046 16 36V26Z" fill="#FF0025"/>
</svg>
